<mxfile host="65bd71144e" modified="2023-10-18T18:22:30.853Z" agent="Mozilla/5.0 (Windows NT 10.0; Win64; x64) AppleWebKit/537.36 (KHTML, like Gecko) Code/1.83.1 Chrome/114.0.5735.289 Electron/25.8.4 Safari/537.36" etag="7oOZSDBr41fgmdvxlS4B" version="22.0.4" type="embed">
    <diagram id="R4dJgLSGfyUcxVpgDMa0" name="Seite-1">
        <mxGraphModel dx="1091" dy="797" grid="1" gridSize="10" guides="1" tooltips="1" connect="1" arrows="1" fold="1" page="1" pageScale="1" pageWidth="827" pageHeight="1169" math="0" shadow="0">
            <root>
                <mxCell id="0"/>
                <mxCell id="1" parent="0"/>
                <mxCell id="10" value="#Foo" style="whiteSpace=wrap;html=1;" parent="1" vertex="1">
                    <mxGeometry x="390" y="470" width="120" height="60" as="geometry"/>
                </mxCell>
                <mxCell id="11" value="#data.classes.Bar" style="whiteSpace=wrap;html=1;" vertex="1" parent="1">
                    <mxGeometry x="140" y="380" width="120" height="60" as="geometry"/>
                </mxCell>
                <mxCell id="12" value="#Cee" style="whiteSpace=wrap;html=1;" vertex="1" parent="1">
                    <mxGeometry x="470" y="370" width="120" height="60" as="geometry"/>
                </mxCell>
            </root>
        </mxGraphModel>
    </diagram>
</mxfile>